<svg width="76" height="42" viewBox="0 0 76 42" fill="none" xmlns="http://www.w3.org/2000/svg">
<path d="M6.108 33.908H7.272V37.796C7.176 37.828 7.036 37.864 6.852 37.904C6.676 37.944 6.468 37.984 6.228 38.024C5.996 38.064 5.74 38.096 5.46 38.12C5.18 38.152 4.896 38.168 4.608 38.168C4.024 38.168 3.492 38.072 3.012 37.88C2.532 37.688 2.12 37.408 1.776 37.04C1.432 36.672 1.164 36.22 0.972 35.684C0.788 35.148 0.696 34.532 0.696 33.836C0.696 33.14 0.8 32.524 1.008 31.988C1.224 31.444 1.512 30.988 1.872 30.62C2.232 30.252 2.652 29.972 3.132 29.78C3.62 29.588 4.14 29.492 4.692 29.492C5.068 29.492 5.4 29.516 5.688 29.564C5.984 29.612 6.236 29.668 6.444 29.732C6.652 29.796 6.82 29.86 6.948 29.924C7.084 29.988 7.176 30.036 7.224 30.068L6.852 31.04C6.62 30.888 6.312 30.764 5.928 30.668C5.544 30.564 5.152 30.512 4.752 30.512C4.328 30.512 3.94 30.588 3.588 30.74C3.244 30.892 2.948 31.112 2.7 31.4C2.46 31.688 2.272 32.04 2.136 32.456C2 32.864 1.932 33.324 1.932 33.836C1.932 34.332 1.988 34.784 2.1 35.192C2.22 35.6 2.396 35.952 2.628 36.248C2.868 36.536 3.16 36.76 3.504 36.92C3.856 37.08 4.268 37.16 4.74 37.16C5.076 37.16 5.36 37.144 5.592 37.112C5.832 37.072 6.004 37.036 6.108 37.004V33.908ZM28.3905 38C28.2545 37.64 28.1265 37.288 28.0065 36.944C27.8865 36.592 27.7625 36.236 27.6345 35.876H23.8665L23.1105 38H21.8985C22.2185 37.12 22.5185 36.308 22.7985 35.564C23.0785 34.812 23.3505 34.1 23.6145 33.428C23.8865 32.756 24.1545 32.116 24.4185 31.508C24.6825 30.892 24.9585 30.284 25.2465 29.684H26.3145C26.6025 30.284 26.8785 30.892 27.1425 31.508C27.4065 32.116 27.6705 32.756 27.9345 33.428C28.2065 34.1 28.4825 34.812 28.7625 35.564C29.0425 36.308 29.3425 37.12 29.6625 38H28.3905ZM27.2985 34.916C27.0425 34.22 26.7865 33.548 26.5305 32.9C26.2825 32.244 26.0225 31.616 25.7505 31.016C25.4705 31.616 25.2025 32.244 24.9465 32.9C24.6985 33.548 24.4505 34.22 24.2025 34.916H27.2985ZM48.2635 36.848C48.1835 36.656 48.0755 36.412 47.9395 36.116C47.8115 35.82 47.6715 35.5 47.5195 35.156C47.3675 34.812 47.2035 34.46 47.0275 34.1C46.8595 33.732 46.6995 33.388 46.5475 33.068C46.3955 32.74 46.2515 32.448 46.1155 32.192C45.9875 31.936 45.8835 31.74 45.8035 31.604C45.7155 32.548 45.6435 33.572 45.5875 34.676C45.5315 35.772 45.4835 36.88 45.4435 38H44.3035C44.3355 37.28 44.3715 36.556 44.4115 35.828C44.4515 35.092 44.4955 34.372 44.5435 33.668C44.5995 32.956 44.6555 32.264 44.7115 31.592C44.7755 30.92 44.8435 30.284 44.9155 29.684H45.9355C46.1515 30.036 46.3835 30.452 46.6315 30.932C46.8795 31.412 47.1275 31.916 47.3755 32.444C47.6235 32.964 47.8635 33.488 48.0955 34.016C48.3275 34.536 48.5395 35.012 48.7315 35.444C48.9235 35.012 49.1355 34.536 49.3675 34.016C49.5995 33.488 49.8395 32.964 50.0875 32.444C50.3355 31.916 50.5835 31.412 50.8315 30.932C51.0795 30.452 51.3115 30.036 51.5275 29.684H52.5475C52.8195 32.364 53.0235 35.136 53.1595 38H52.0195C51.9795 36.88 51.9315 35.772 51.8755 34.676C51.8195 33.572 51.7475 32.548 51.6595 31.604C51.5795 31.74 51.4715 31.936 51.3355 32.192C51.2075 32.448 51.0675 32.74 50.9155 33.068C50.7635 33.388 50.5995 33.732 50.4235 34.1C50.2555 34.46 50.0955 34.812 49.9435 35.156C49.7915 35.5 49.6475 35.82 49.5115 36.116C49.3835 36.412 49.2795 36.656 49.1995 36.848H48.2635ZM68.7247 38V29.684H73.8007V30.68H69.8887V33.152H73.3687V34.124H69.8887V37.004H74.1007V38H68.7247Z" fill="white"/>
<path d="M4.22 14.06C4.22 14.74 4.3 15.3533 4.46 15.9C4.63333 16.4467 4.87333 16.92 5.18 17.32C5.5 17.7067 5.88667 18.0067 6.34 18.22C6.79333 18.4333 7.31333 18.54 7.9 18.54C8.47333 18.54 8.98667 18.4333 9.44 18.22C9.90667 18.0067 10.2933 17.7067 10.6 17.32C10.92 16.92 11.16 16.4467 11.32 15.9C11.4933 15.3533 11.58 14.74 11.58 14.06C11.58 13.38 11.4933 12.7667 11.32 12.22C11.16 11.66 10.92 11.1867 10.6 10.8C10.2933 10.4 9.90667 10.0933 9.44 9.88C8.98667 9.66667 8.47333 9.56 7.9 9.56C7.31333 9.56 6.79333 9.67333 6.34 9.9C5.88667 10.1133 5.5 10.42 5.18 10.82C4.87333 11.2067 4.63333 11.68 4.46 12.24C4.3 12.7867 4.22 13.3933 4.22 14.06ZM14.8 14.06C14.8 15.2467 14.62 16.2933 14.26 17.2C13.9133 18.0933 13.4333 18.8467 12.82 19.46C12.2067 20.06 11.4733 20.5133 10.62 20.82C9.78 21.1267 8.87333 21.28 7.9 21.28C6.95333 21.28 6.06 21.1267 5.22 20.82C4.38 20.5133 3.64667 20.06 3.02 19.46C2.39333 18.8467 1.9 18.0933 1.54 17.2C1.18 16.2933 1 15.2467 1 14.06C1 12.8733 1.18667 11.8333 1.56 10.94C1.93333 10.0333 2.43333 9.27333 3.06 8.66C3.7 8.04667 4.43333 7.58667 5.26 7.28C6.1 6.97333 6.98 6.82 7.9 6.82C8.84667 6.82 9.74 6.97333 10.58 7.28C11.42 7.58667 12.1533 8.04667 12.78 8.66C13.4067 9.27333 13.9 10.0333 14.26 10.94C14.62 11.8333 14.8 12.8733 14.8 14.06ZM26.7008 21C25.8074 19.4133 24.8408 17.8467 23.8008 16.3C22.7608 14.7533 21.6541 13.2933 20.4808 11.92V21H17.4008V7.14H19.9408C20.3808 7.58 20.8674 8.12 21.4008 8.76C21.9341 9.4 22.4741 10.0867 23.0208 10.82C23.5808 11.54 24.1341 12.2933 24.6808 13.08C25.2274 13.8533 25.7408 14.6 26.2208 15.32V7.14H29.3208V21H26.7008ZM41.778 18.32V21H32.518V7.14H35.638V18.32H41.778ZM43.7875 7.14H46.9075V21H43.7875V7.14ZM59.4156 21C58.5223 19.4133 57.5556 17.8467 56.5156 16.3C55.4756 14.7533 54.369 13.2933 53.1956 11.92V21H50.1156V7.14H52.6556C53.0956 7.58 53.5823 8.12 54.1156 8.76C54.649 9.4 55.189 10.0867 55.7356 10.82C56.2956 11.54 56.849 12.2933 57.3956 13.08C57.9423 13.8533 58.4556 14.6 58.9356 15.32V7.14H62.0356V21H59.4156ZM65.2328 21V7.14H74.5928V9.76H68.3528V12.48H73.8928V15.04H68.3528V18.38H75.0528V21H65.2328Z" fill="white"/>
</svg>
